<?xml version="1.0" encoding="UTF-8"?>
<svg width="106px" height="96px" viewBox="0 0 106 96" version="1.1" xmlns="http://www.w3.org/2000/svg" xmlns:xlink="http://www.w3.org/1999/xlink">
    <!-- Generator: sketchtool 45 (43475) - http://www.bohemiancoding.com/sketch -->
    <title>AA692D35-E18B-481E-91F3-BE01A88C04E5</title>
    <desc>Created with sketchtool.</desc>
    <defs></defs>
    <g id="V12" stroke="none" stroke-width="1" fill="none" fill-rule="evenodd">
        <g id="Sign-Up-PopUp" transform="translate(-572.000000, -176.000000)" fill="#FFFFFF">
            <g id="B-symbol" transform="translate(572.741935, 176.000000)">
                <path d="M81.5510184,96 L24.6114866,96 L24.6114866,69.5809624 L32.3622315,69.5809624 L32.3622315,89.0126242 L81.6125539,89.0126242 C94.3011851,89.0126242 97.9796438,86.0041895 98.0001556,75.6072543 C97.9796438,65.1012887 94.4570752,62.2220753 81.6125539,62.2086147 L0,62.2086147 L0,55.2212389 L81.5510184,55.2212389 C95.3062658,55.2293153 104.475063,58.6967551 104.495575,75.6099464 C104.480533,87.8469399 100.569607,96 81.5510184,96" id="Fill-1"></path>
                <path d="M104.495575,20.3913997 C104.473696,37.3030155 95.3048984,40.7706842 81.5510184,40.7787611 L0,40.7787611 L0,33.7895778 L81.6125539,33.7895778 C94.4557077,33.7761164 97.9782763,30.898059 98.0001556,20.3913997 C97.9782763,9.99243203 94.3011851,6.98783708 81.6125539,6.98783708 L32.3622315,6.98783708 L32.3622315,26.4207818 L24.6114866,26.4207818 L24.6114866,0 L81.5510184,0 C100.569607,0 104.479166,8.14955995 104.495575,20.3913997" id="Fill-4"></path>
            </g>
        </g>
    </g>
</svg>